<svg width="21" height="22" viewBox="0 0 21 22" fill="none" xmlns="http://www.w3.org/2000/svg">
<path fill-rule="evenodd" clip-rule="evenodd" d="M0.5 4.57142C0.5 3.43478 0.951529 2.34469 1.75526 1.54096C2.55898 0.737235 3.64907 0.285706 4.78571 0.285706H19.0714C19.3367 0.285706 19.5968 0.359584 19.8225 0.499062C20.0482 0.638539 20.2305 0.838106 20.3492 1.0754C20.4678 1.31269 20.5181 1.57834 20.4942 1.84257C20.4704 2.1068 20.3735 2.35918 20.2143 2.57142L16.5714 7.42856L20.2143 12.2857C20.3735 12.4979 20.4704 12.7503 20.4942 13.0146C20.5181 13.2788 20.4678 13.5444 20.3492 13.7817C20.2305 14.019 20.0482 14.2186 19.8225 14.3581C19.5968 14.4975 19.3367 14.5714 19.0714 14.5714H4.78571C4.40683 14.5714 4.04347 14.7219 3.77556 14.9898C3.50765 15.2577 3.35714 15.6211 3.35714 16V20.2857C3.35714 20.6646 3.20663 21.0279 2.93872 21.2959C2.67081 21.5638 2.30745 21.7143 1.92857 21.7143C1.54969 21.7143 1.18633 21.5638 0.918419 21.2959C0.65051 21.0279 0.5 20.6646 0.5 20.2857V4.57142Z" fill="#EA580C"/>
</svg>
